<svg xmlns="http://www.w3.org/2000/svg" viewBox="0 0 16 16">
  <path d="M8 1 L15 4 L15 8 C15 12 12 15 8 15 C4 15 1 12 1 8 L1 4 Z" 
        fill="#4CAF50" stroke="#388E3C" stroke-width="0.5"/>
  <path d="M5.5 6 C7.5 5.5 9.5 5.5 11.5 6 C9.5 6.5 7.5 6.5 5.5 6 Z 
           M10.5 5.8 L11.5 5.5 L10.5 5.2" 
        fill="none" stroke="white" stroke-width="0.5" stroke-linecap="round"/>
  <path d="M6 8 C6 8.5 6.5 9 7.5 9 C8.5 9 9 8.5 9 8 L9 7" 
        fill="none" stroke="white" stroke-width="0.5" stroke-linecap="round"/>
  <line x1="5" y1="5" x2="11" y2="11" 
        stroke="#D32F2F" stroke-width="0.75" stroke-linecap="round"/>
</svg>