<svg xmlns="http://www.w3.org/2000/svg" viewBox="0 0 48 48">
  <path d="M24 3 L45 12 L45 24 C45 36 36 45 24 45 C12 45 3 36 3 24 L3 12 Z" 
        fill="#4CAF50" stroke="#388E3C" stroke-width="1.5"/>
  <path d="M16.5 18 C22.5 16.5 28.5 16.5 34.5 18 C28.5 19.5 22.5 19.5 16.5 18 Z 
           M31.5 17.4 L34.5 16.5 L31.5 15.6" 
        fill="none" stroke="white" stroke-width="1.5" stroke-linecap="round"/>
  <path d="M18 24 C18 25.5 19.5 27 22.5 27 C25.5 27 27 25.5 27 24 L27 21" 
        fill="none" stroke="white" stroke-width="1.5" stroke-linecap="round"/>
  <line x1="15" y1="15" x2="33" y2="33" 
        stroke="#D32F2F" stroke-width="2.25" stroke-linecap="round"/>
</svg>